<svg width="51" height="51" viewBox="0 0 51 51" fill="none" xmlns="http://www.w3.org/2000/svg">
<path d="M49.4563 46.5104L37.0209 34.075C40.4097 29.9304 42.0758 24.6419 41.6747 19.3033C41.2736 13.9647 38.8359 8.98446 34.8658 5.39277C30.8958 1.80108 25.6971 -0.12729 20.3451 0.00652624C14.9931 0.140343 9.89732 2.32611 6.11171 6.11171C2.32611 9.89732 0.140343 14.9931 0.00652624 20.3451C-0.12729 25.6971 1.80108 30.8958 5.39277 34.8658C8.98446 38.8359 13.9647 41.2736 19.3033 41.6747C24.6419 42.0758 29.9304 40.4097 34.075 37.0209L46.5104 49.4563C46.9034 49.8358 47.4296 50.0458 47.9759 50.041C48.5221 50.0363 49.0446 49.8172 49.4309 49.4309C49.8172 49.0446 50.0363 48.5221 50.041 47.9759C50.0458 47.4296 49.8358 46.9034 49.4563 46.5104ZM20.9 37.5667C17.6037 37.5667 14.3813 36.5892 11.6405 34.7578C8.89969 32.9265 6.76349 30.3235 5.50203 27.2781C4.24056 24.2326 3.91051 20.8815 4.5536 17.6485C5.19668 14.4155 6.78403 11.4458 9.11491 9.11491C11.4458 6.78403 14.4155 5.19668 17.6485 4.5536C20.8815 3.91051 24.2326 4.24056 27.2781 5.50203C30.3235 6.76349 32.9265 8.89969 34.7578 11.6405C36.5892 14.3813 37.5667 17.6037 37.5667 20.9C37.5617 25.3188 35.8042 29.5551 32.6797 32.6797C29.5551 35.8042 25.3188 37.5617 20.9 37.5667Z" fill="#315634"/>
</svg>
